<svg xmlns="http://www.w3.org/2000/svg" viewBox="0 0 256 256" role="img" aria-labelledby="title desc">
  <title id="title">Realtime Group Logo</title>
  <desc id="desc">Rounded square mark with network nodes representing realtime collaboration.</desc>
  <defs>
    <linearGradient id="bg" x1="0" y1="0" x2="1" y2="1">
      <stop offset="0%" stop-color="#0b1f3a"/>
      <stop offset="100%" stop-color="#0f766e"/>
    </linearGradient>
    <linearGradient id="accent" x1="0" y1="1" x2="1" y2="0">
      <stop offset="0%" stop-color="#c6a16b"/>
      <stop offset="100%" stop-color="#e1c08f"/>
    </linearGradient>
  </defs>

  <rect x="12" y="12" width="232" height="232" rx="56" fill="url(#bg)"/>

  <path d="M66 78h86c11 0 20 9 20 20v38c0 11-9 20-20 20H92l-26 23v-23h0c-11 0-20-9-20-20V98c0-11 9-20 20-20z" fill="rgba(255,255,255,0.92)"/>
  <path d="M168 96h26c9 0 16 7 16 16v24c0 9-7 16-16 16h-16v20l-19-20" fill="none" stroke="rgba(255,255,255,0.78)" stroke-width="10" stroke-linecap="round" stroke-linejoin="round"/>

  <circle cx="93" cy="117" r="8" fill="#0b1f3a"/>
  <circle cx="126" cy="117" r="8" fill="#0b1f3a"/>
  <circle cx="159" cy="117" r="8" fill="#0b1f3a"/>

  <path d="M86 196c18-15 33-23 42-23 8 0 21 7 39 21" fill="none" stroke="url(#accent)" stroke-width="9" stroke-linecap="round"/>
</svg>
